<svg xmlns="http://www.w3.org/2000/svg" width="512" height="512" viewBox="0 0 512 512" version="1.1"><path d="M 250.500 49.512 C 204.241 57.022, 165.367 85.931, 146.026 127.203 C 143.812 131.929, 142 136.280, 142 136.872 C 142 137.570, 140.855 137.694, 138.750 137.225 C 132.771 135.891, 113.607 136.555, 114.540 138.064 C 114.757 138.416, 112.976 143.158, 110.581 148.602 C 104.798 161.747, 99.412 178.993, 96.871 192.500 C 93.939 208.084, 93.232 236.557, 95.393 252 C 101.546 295.970, 119.930 332.937, 151.216 364.250 L 160.958 374 184.479 374 L 208 374 208 355.500 L 208 337 190.750 336.944 C 180.157 336.909, 172.149 336.426, 170 335.694 C 165.750 334.244, 162.547 328.654, 163.588 324.504 C 164.001 322.858, 178.053 307.581, 200.229 284.667 C 253.995 229.114, 250.939 232, 255.993 232 C 261.054 232, 257.663 228.800, 311.267 284.156 C 336.983 310.713, 347.899 322.651, 348.299 324.656 C 349.174 329.035, 346.190 334.265, 342 335.694 C 339.851 336.426, 331.843 336.909, 321.250 336.944 L 304 337 304 355.500 L 304 374 361.750 373.999 C 393.512 373.999, 424.346 373.539, 430.268 372.977 C 477.510 368.497, 512 331.170, 512 284.523 C 512 259.649, 503.213 238.136, 486.038 220.962 C 468.073 202.996, 445.701 194.307, 419.622 195.167 L 407.500 195.566 407.429 183.533 C 407.054 119.548, 361.540 64.297, 298.244 50.990 C 285.170 48.242, 262.623 47.543, 250.500 49.512 M 192.465 140.961 C 188.917 142.383, 187.744 144.842, 187.237 151.926 C 186.331 164.590, 188.783 170, 195.427 170 C 197.939 170, 199.409 169.296, 200.927 167.365 C 202.687 165.128, 203 163.325, 203 155.421 C 203 147.167, 202.745 145.831, 200.750 143.637 C 198.110 140.732, 195.300 139.825, 192.465 140.961 M 342.400 141.436 C 338.373 143.178, 338 144.367, 338 155.447 C 338 163.324, 338.314 165.129, 340.073 167.365 C 342.670 170.667, 348.022 170.978, 351 168 C 352.743 166.257, 353 164.667, 353 155.611 C 353 147.154, 352.674 144.845, 351.250 143.198 C 348.837 140.407, 346.057 139.854, 342.400 141.436 M 247.356 155.492 C 238.743 159.114, 242.933 168.890, 255.818 175.229 C 261.671 178.110, 263.426 178.498, 270.529 178.487 C 277.597 178.476, 279.414 178.071, 285.212 175.216 C 292.560 171.599, 298 166.199, 298 162.521 C 298 161.196, 296.946 158.886, 295.658 157.389 C 292.377 153.574, 288.188 153.749, 283.461 157.900 C 278.907 161.898, 276.107 163, 270.500 163 C 265.133 163, 261.280 161.613, 258 158.500 C 254.212 154.905, 250.948 153.982, 247.356 155.492" stroke="none" fill="#4487da" fill-rule="evenodd"/><path d="M 110.124 138.578 C 94.852 142.685, 80.514 154.523, 73.192 169.068 C 69.125 177.150, 66.054 188.061, 66.017 194.567 C 66.001 197.424, 65.604 197.758, 60.250 199.421 C 32.019 208.194, 7.878 235.503, 1.418 265.976 C -0.394 274.523, -0.377 293.095, 1.450 301.685 C 7.538 330.294, 25.333 352.878, 51.373 365.041 C 61.461 369.753, 69.187 371.778, 81.740 372.999 C 91.878 373.985, 160 374.399, 160 373.474 C 160 373.185, 155.827 368.798, 150.728 363.724 C 120.113 333.268, 101.509 295.705, 95.393 252 C 93.213 236.416, 93.938 208.104, 96.926 192.181 C 99.420 178.883, 106.085 158.097, 111.812 145.750 C 114.044 140.938, 115.787 137.030, 115.685 137.066 C 115.583 137.102, 113.081 137.782, 110.124 138.578" stroke="none" fill="#006ad0" fill-rule="evenodd"/><path d="M 243.967 239.750 C 214.298 269.355, 164.161 322.221, 163.588 324.504 C 162.547 328.654, 165.750 334.244, 170 335.694 C 172.149 336.426, 180.157 336.909, 190.750 336.944 L 208 337 208 393.040 C 208 446.158, 208.099 449.273, 209.903 452.790 C 212.308 457.481, 215.517 460.482, 220.232 462.452 C 223.316 463.741, 229.346 464, 256.256 464 C 287.802 464, 288.682 463.946, 292.980 461.750 C 295.402 460.513, 298.760 457.771, 300.442 455.658 L 303.500 451.816 303.774 394.408 L 304.048 337 321.274 336.944 C 331.848 336.909, 339.852 336.426, 342 335.694 C 346.190 334.265, 349.174 329.035, 348.299 324.656 C 347.899 322.651, 336.983 310.713, 311.267 284.156 C 257.663 228.800, 261.054 232, 255.993 232 C 252.015 232, 251.221 232.512, 243.967 239.750" stroke="none" fill="#50e2ce" fill-rule="evenodd"/><path d="M 192.465 140.961 C 188.917 142.383, 187.744 144.842, 187.237 151.926 C 186.331 164.590, 188.783 170, 195.427 170 C 197.939 170, 199.409 169.296, 200.927 167.365 C 202.687 165.128, 203 163.325, 203 155.421 C 203 147.167, 202.745 145.831, 200.750 143.637 C 198.110 140.732, 195.300 139.825, 192.465 140.961 M 342.400 141.436 C 338.373 143.178, 338 144.367, 338 155.447 C 338 163.324, 338.314 165.129, 340.073 167.365 C 342.670 170.667, 348.022 170.978, 351 168 C 352.743 166.257, 353 164.667, 353 155.611 C 353 147.154, 352.674 144.845, 351.250 143.198 C 348.837 140.407, 346.057 139.854, 342.400 141.436 M 247.356 155.492 C 238.743 159.114, 242.933 168.890, 255.818 175.229 C 261.671 178.110, 263.426 178.498, 270.529 178.487 C 277.597 178.476, 279.414 178.071, 285.212 175.216 C 292.560 171.599, 298 166.199, 298 162.521 C 298 161.196, 296.946 158.886, 295.658 157.389 C 292.377 153.574, 288.188 153.749, 283.461 157.900 C 278.907 161.898, 276.107 163, 270.500 163 C 265.133 163, 261.280 161.613, 258 158.500 C 254.212 154.905, 250.948 153.982, 247.356 155.492" stroke="none" fill="#423e4f" fill-rule="evenodd"/></svg>